<?xml version="1.0" standalone="no"?>
<!DOCTYPE svg PUBLIC "-//W3C//DTD SVG 20010904//EN"
 "http://www.w3.org/TR/2001/REC-SVG-20010904/DTD/svg10.dtd">
<svg version="1.0" xmlns="http://www.w3.org/2000/svg"
 width="500.000000pt" height="500.000000pt" viewBox="0 0 500.000000 500.000000"
 preserveAspectRatio="xMidYMid meet">
<metadata>
Created by potrace 1.14, written by Peter Selinger 2001-2017
</metadata>
<g transform="translate(0.000000,500.000000) scale(0.100000,-0.100000)"
fill="#000000" stroke="none">
<path d="M2260 3988 c-128 -211 -274 -450 -325 -533 -193 -314 -317 -517 -321
-530 -4 -10 164 -13 880 -13 488 0 888 3 890 7 5 8 -875 1451 -884 1451 -4 0
-112 -172 -240 -382z"/>
<path d="M1437 2638 c-25 -40 -154 -251 -287 -468 l-241 -395 796 -3 c437 -1
1153 -1 1590 0 l796 3 -132 215 c-73 118 -138 226 -146 240 -8 14 -76 126
-152 250 l-138 225 -1021 3 -1021 2 -44 -72z"/>
<path d="M757 1533 c-13 -21 -45 -74 -72 -118 -26 -44 -63 -102 -80 -130 -18
-27 -41 -66 -52 -85 -10 -19 -30 -53 -45 -75 -72 -112 -298 -487 -298 -495 0
-7 785 -10 2290 -10 1368 0 2290 4 2290 9 0 9 -34 66 -241 404 -45 72 -125
204 -179 293 -53 88 -110 179 -125 202 l-28 42 -1718 0 -1719 0 -23 -37z"/>
</g>
</svg>
